name analog
datacolumns 19
datarows 28
range 0.5145 0.528
endheader
time	ground_force_vx	ground_force_vy	ground_force_vz	ground_force_px	ground_force_py	ground_force_pz	l_ground_force_vx	l_ground_force_vy	l_ground_force_vz	l_ground_force_px	l_ground_force_py	l_ground_force_pz	ground_torque_x	ground_torque_y	ground_torque_z	l_ground_torque_x	l_ground_torque_y	l_ground_torque_z
0.5145	-0.0	-0.0	-0.0	-1.3381576538085938	7.618832588195801	-350.1707458496094	1.3595333099365234	-8.941618919372559	-373.59222412109375	-0.0	-0.0	-0.0	-0.0	-0.0	-0.0	99553.375	-30733.298828125	-2717.482666015625
0.515	-0.0	-0.0	-0.0	-1.116896629333496	7.465552806854248	-350.849365234375	1.0183143615722656	-8.899335861206055	-375.6871337890625	-0.0	-0.0	-0.0	-0.0	-0.0	-0.0	100334.4921875	-31103.125	-2938.2763671875
0.5155	-0.0	-0.0	-0.0	-1.4985005855560305	7.151870727539063	-348.7585144042969	1.550654053688049	-9.075942039489746	-377.0978088378906	-0.0	-0.0	-0.0	-0.0	-0.0	-0.0	100701.53125	-31392.03515625	-2692.31884765625
0.516	-0.0	-0.0	-0.0	-1.095250368118286	7.219562530517578	-350.4651794433594	2.1111555099487305	-9.118363380432127	-376.972900390625	-0.0	-0.0	-0.0	-0.0	-0.0	-0.0	101334.84375	-31595.978515625	-2646.90087890625
0.5165	-0.0	-0.0	-0.0	-1.0028376579284668	7.26256799697876	-348.15020751953125	2.061697244644165	-9.136345863342283	-379.7088928222656	-0.0	-0.0	-0.0	-0.0	-0.0	-0.0	101615.2265625	-31567.759765625	-2371.76123046875
0.517	-0.0	-0.0	-0.0	-0.8764885067939758	7.459475517272949	-347.0787658691406	2.973393201828003	-8.81087589263916	-379.6119995117188	-0.0	-0.0	-0.0	-0.0	-0.0	-0.0	101631.390625	-31631.56640625	-2573.7431640625
0.5175	-0.0	-0.0	-0.0	-0.4488733112812042	7.557324409484863	-347.9789123535156	3.3954477310180664	-8.94182014465332	-380.57525634765625	-0.0	-0.0	-0.0	-0.0	-0.0	-0.0	101605.1953125	-31768.474609375	-2410.8154296875
0.518	-0.0	-0.0	-0.0	0.362270176410675	7.551767826080322	-346.8119812011719	3.682951450347901	-8.411916732788086	-379.949951171875	-0.0	-0.0	-0.0	-0.0	-0.0	-0.0	101263.5234375	-31594.197265625	-2306.139404296875
0.5185	-0.0	-0.0	-0.0	0.978752374649048	7.959370136260986	-346.47967529296875	3.6156539916992183	-8.676918983459473	-378.5758056640625	-0.0	-0.0	-0.0	-0.0	-0.0	-0.0	101175.0703125	-31478.23046875	-2313.427734375
0.519	-0.0	-0.0	-0.0	1.6781251430511477	8.178317070007324	-345.40997314453125	3.8576152324676514	-8.519147872924805	-379.17864990234375	-0.0	-0.0	-0.0	-0.0	-0.0	-0.0	101004.78125	-31276.1875	-2313.21533203125
0.5195	-0.0	-0.0	-0.0	2.051841735839844	7.976011276245117	-346.6415405273437	4.169406890869141	-8.679485321044922	-379.4529113769531	-0.0	-0.0	-0.0	-0.0	-0.0	-0.0	100571.484375	-31144.24609375	-2277.006591796875
0.52	-0.0	-0.0	-0.0	2.091019630432129	7.889124870300293	-344.7811889648437	4.368414402008057	-8.58869457244873	-376.4610900878906	-0.0	-0.0	-0.0	-0.0	-0.0	-0.0	100062.828125	-30913.912109375	-2267.1865234375
0.5205	-0.0	-0.0	-0.0	2.3154330253601074	7.801937580108643	-346.20263671875	4.816440582275391	-8.256973266601562	-376.4705505371094	-0.0	-0.0	-0.0	-0.0	-0.0	-0.0	99714.5625	-30469.328125	-2230.70556640625
0.521	-0.0	-0.0	-0.0	2.834813356399536	7.690825939178467	-344.6021423339844	4.788280487060547	-8.280681610107422	-375.8575744628906	-0.0	-0.0	-0.0	-0.0	-0.0	-0.0	99172.8828125	-30252.55078125	-2201.780029296875
0.5215	-0.0	-0.0	-0.0	2.4742684364318848	7.867079734802246	-345.2299194335937	4.835719108581543	-8.213916778564453	-375.0819396972656	-0.0	-0.0	-0.0	-0.0	-0.0	-0.0	99036.6328125	-29872.671875	-2253.7705078125
0.522	-0.0	-0.0	-0.0	2.3616585731506348	7.177415370941162	-345.8562316894531	4.701671600341797	-8.567203521728516	-373.677734375	-0.0	-0.0	-0.0	-0.0	-0.0	-0.0	98708.9375	-29660.783203125	-2356.8203125
0.5225	-0.0	-0.0	-0.0	2.610504388809204	6.79728889465332	-344.43731689453125	4.234692573547363	-8.08226203918457	-374.73187255859375	-0.0	-0.0	-0.0	-0.0	-0.0	-0.0	98666.6875	-29572.2734375	-2461.15625
0.523	-0.0	-0.0	-0.0	2.208299398422241	6.82050895690918	-342.58453369140625	3.814563751220703	-8.015581130981445	-374.1067504882813	-0.0	-0.0	-0.0	-0.0	-0.0	-0.0	98960.1953125	-29230.23046875	-2646.70849609375
0.5235	-0.0	-0.0	-0.0	2.4770991802215576	6.863040924072266	-343.0248413085937	3.638550281524658	-8.280508041381836	-377.7765197753906	-0.0	-0.0	-0.0	-0.0	-0.0	-0.0	98910.3046875	-29152.306640625	-2913.4189453125
0.524	-0.0	-0.0	-0.0	1.9174983501434328	6.196144104003906	-340.81866455078125	3.70524787902832	-7.794075489044189	-376.7247314453125	-0.0	-0.0	-0.0	-0.0	-0.0	-0.0	99113.2734375	-28814.21484375	-3144.1533203125
0.5245	-0.0	-0.0	-0.0	2.0086593627929688	6.149997711181641	-341.878173828125	2.8606348037719727	-7.927157878875732	-377.2560424804688	-0.0	-0.0	-0.0	-0.0	-0.0	-0.0	99269.390625	-28890.28125	-3211.014892578125
0.525	-0.0	-0.0	-0.0	1.447875738143921	6.217842102050781	-341.4375	2.373264074325561	-8.060102462768555	-377.7781372070313	-0.0	-0.0	-0.0	-0.0	-0.0	-0.0	98962.71875	-28509.892578125	-3426.723388671875
0.5255	-0.0	-0.0	-0.0	1.6728588342666626	5.94896936416626	-340.6433410644531	1.5739773511886597	-8.347671508789062	-377.6955871582031	-0.0	-0.0	-0.0	-0.0	-0.0	-0.0	99080.0546875	-28510.900390625	-3545.7109375
0.526	-0.0	-0.0	-0.0	1.6949996948242188	6.5518951416015625	-340.3755798339844	1.109258055686951	-8.191279411315918	-378.4803466796875	-0.0	-0.0	-0.0	-0.0	-0.0	-0.0	98873.2578125	-28157.984375	-3917.194580078125
0.5265	-0.0	-0.0	-0.0	1.762394905090332	5.949941158294678	-342.58453369140625	0.1988536715507507	-8.433830261230469	-377.7820434570313	-0.0	-0.0	-0.0	-0.0	-0.0	-0.0	98539.2265625	-27888.333984375	-3969.615966796875
0.527	-0.0	-0.0	-0.0	1.404886245727539	6.1502366065979	-342.1442565917969	0.310710996389389	-8.765371322631836	-377.3460693359375	-0.0	-0.0	-0.0	-0.0	-0.0	-0.0	98458.4453125	-27708.060546875	-4051.221435546875
0.5275	-0.0	-0.0	-0.0	1.5386961698532104	6.21703052520752	-341.9657592773437	0.5992428064346313	-8.434188842773438	-376.9967956542969	-0.0	-0.0	-0.0	-0.0	-0.0	-0.0	98456.3203125	-27488.197265625	-4013.747802734375
0.528	-0.0	-0.0	-0.0	1.6057864427566528	6.261411190032959	-343.2026062011719	0.9315662384033204	-8.522939682006836	-376.6450805664063	-0.0	-0.0	-0.0	-0.0	-0.0	-0.0	98593.203125	-27659.28125	-3983.88232421875
